<mxfile host="app.diagrams.net" modified="2023-10-06T17:15:34.561Z" agent="Mozilla/5.0 (Windows NT 10.0; Win64; x64) AppleWebKit/537.36 (KHTML, like Gecko) Chrome/115.0.0.0 Safari/537.36" etag="QWhgXxJjixgeOXmQi160" version="22.0.3" type="device">
  <diagram name="Página-1" id="HuEw2wNl35t896j_TasQ">
    <mxGraphModel dx="1434" dy="782" grid="1" gridSize="10" guides="1" tooltips="1" connect="1" arrows="1" fold="1" page="1" pageScale="1" pageWidth="827" pageHeight="1169" math="0" shadow="0">
      <root>
        <mxCell id="0" />
        <mxCell id="1" parent="0" />
        <mxCell id="lW1dMeE9RGw7dCfHeF60-2" value="" style="rounded=0;whiteSpace=wrap;html=1;fillColor=#dae8fc;strokeColor=#6c8ebf;strokeWidth=2;" parent="1" vertex="1">
          <mxGeometry x="130" y="110" width="570" height="630" as="geometry" />
        </mxCell>
        <mxCell id="lW1dMeE9RGw7dCfHeF60-27" style="rounded=0;orthogonalLoop=1;jettySize=auto;html=1;entryX=0;entryY=0.5;entryDx=0;entryDy=0;" parent="1" source="lW1dMeE9RGw7dCfHeF60-3" target="lW1dMeE9RGw7dCfHeF60-10" edge="1">
          <mxGeometry relative="1" as="geometry" />
        </mxCell>
        <mxCell id="lW1dMeE9RGw7dCfHeF60-3" value="SECRETARIA" style="shape=umlActor;verticalLabelPosition=bottom;verticalAlign=top;html=1;outlineConnect=0;strokeColor=#3333FF;" parent="1" vertex="1">
          <mxGeometry x="50" y="270" width="30" height="60" as="geometry" />
        </mxCell>
        <mxCell id="lW1dMeE9RGw7dCfHeF60-8" value="MENSAJERO" style="shape=umlActor;verticalLabelPosition=bottom;verticalAlign=top;html=1;outlineConnect=0;strokeColor=#EA6B66;" parent="1" vertex="1">
          <mxGeometry x="750" y="555" width="30" height="60" as="geometry" />
        </mxCell>
        <mxCell id="lW1dMeE9RGw7dCfHeF60-36" style="rounded=0;orthogonalLoop=1;jettySize=auto;html=1;entryX=1;entryY=0.5;entryDx=0;entryDy=0;" parent="1" source="lW1dMeE9RGw7dCfHeF60-9" target="lW1dMeE9RGw7dCfHeF60-10" edge="1">
          <mxGeometry relative="1" as="geometry">
            <Array as="points">
              <mxPoint x="600" y="140" />
            </Array>
          </mxGeometry>
        </mxCell>
        <mxCell id="lW1dMeE9RGw7dCfHeF60-9" value="CLIENTE" style="shape=umlActor;verticalLabelPosition=bottom;verticalAlign=top;html=1;outlineConnect=0;strokeColor=#000000;" parent="1" vertex="1">
          <mxGeometry x="750" y="350" width="30" height="60" as="geometry" />
        </mxCell>
        <mxCell id="lW1dMeE9RGw7dCfHeF60-10" value="Gestionar Ventas" style="ellipse;whiteSpace=wrap;html=1;fillColor=#99CCFF;strokeColor=#66B2FF;" parent="1" vertex="1">
          <mxGeometry x="240" y="130" width="120" height="40" as="geometry" />
        </mxCell>
        <mxCell id="lW1dMeE9RGw7dCfHeF60-12" value="Gestionar Clientes" style="ellipse;whiteSpace=wrap;html=1;fillColor=#99CCFF;strokeColor=#66B2FF;" parent="1" vertex="1">
          <mxGeometry x="354" y="160" width="120" height="40" as="geometry" />
        </mxCell>
        <mxCell id="lW1dMeE9RGw7dCfHeF60-13" value="Gestionar Productos" style="ellipse;whiteSpace=wrap;html=1;fillColor=#99CCFF;strokeColor=#66B2FF;" parent="1" vertex="1">
          <mxGeometry x="240" y="210" width="120" height="40" as="geometry" />
        </mxCell>
        <mxCell id="lW1dMeE9RGw7dCfHeF60-14" value="Gestionar Pagos" style="ellipse;whiteSpace=wrap;html=1;fillColor=#99CCFF;strokeColor=#66B2FF;" parent="1" vertex="1">
          <mxGeometry x="354" y="260" width="120" height="40" as="geometry" />
        </mxCell>
        <mxCell id="lW1dMeE9RGw7dCfHeF60-15" value="Gestionar Mensajeros" style="ellipse;whiteSpace=wrap;html=1;fillColor=#99CCFF;strokeColor=#66B2FF;" parent="1" vertex="1">
          <mxGeometry x="235" y="290" width="120" height="40" as="geometry" />
        </mxCell>
        <mxCell id="lW1dMeE9RGw7dCfHeF60-16" value="Gestionar Recaudos" style="ellipse;whiteSpace=wrap;html=1;fillColor=#99CCFF;strokeColor=#66B2FF;" parent="1" vertex="1">
          <mxGeometry x="360" y="330" width="120" height="40" as="geometry" />
        </mxCell>
        <mxCell id="lW1dMeE9RGw7dCfHeF60-17" value="Gestionar Pedidos" style="ellipse;whiteSpace=wrap;html=1;fillColor=#99CCFF;strokeColor=#66B2FF;" parent="1" vertex="1">
          <mxGeometry x="240" y="370" width="120" height="40" as="geometry" />
        </mxCell>
        <mxCell id="lW1dMeE9RGw7dCfHeF60-18" value="Gestionar Envíos" style="ellipse;whiteSpace=wrap;html=1;fillColor=#99CCFF;strokeColor=#66B2FF;" parent="1" vertex="1">
          <mxGeometry x="355" y="410" width="120" height="40" as="geometry" />
        </mxCell>
        <mxCell id="lW1dMeE9RGw7dCfHeF60-29" style="rounded=0;orthogonalLoop=1;jettySize=auto;html=1;entryX=0;entryY=0.5;entryDx=0;entryDy=0;" parent="1" target="lW1dMeE9RGw7dCfHeF60-12" edge="1">
          <mxGeometry relative="1" as="geometry">
            <mxPoint x="90" y="297" as="sourcePoint" />
            <mxPoint x="250" y="160" as="targetPoint" />
            <Array as="points">
              <mxPoint x="220" y="210" />
            </Array>
          </mxGeometry>
        </mxCell>
        <mxCell id="lW1dMeE9RGw7dCfHeF60-30" style="rounded=0;orthogonalLoop=1;jettySize=auto;html=1;entryX=0;entryY=0.5;entryDx=0;entryDy=0;" parent="1" target="lW1dMeE9RGw7dCfHeF60-13" edge="1">
          <mxGeometry relative="1" as="geometry">
            <mxPoint x="90" y="310" as="sourcePoint" />
            <mxPoint x="250" y="160" as="targetPoint" />
          </mxGeometry>
        </mxCell>
        <mxCell id="lW1dMeE9RGw7dCfHeF60-31" style="rounded=0;orthogonalLoop=1;jettySize=auto;html=1;entryX=0;entryY=0.5;entryDx=0;entryDy=0;" parent="1" target="lW1dMeE9RGw7dCfHeF60-14" edge="1">
          <mxGeometry relative="1" as="geometry">
            <mxPoint x="100" y="320" as="sourcePoint" />
            <mxPoint x="250" y="240" as="targetPoint" />
            <Array as="points">
              <mxPoint x="230" y="280" />
            </Array>
          </mxGeometry>
        </mxCell>
        <mxCell id="lW1dMeE9RGw7dCfHeF60-32" style="rounded=0;orthogonalLoop=1;jettySize=auto;html=1;entryX=0;entryY=0.5;entryDx=0;entryDy=0;" parent="1" target="lW1dMeE9RGw7dCfHeF60-15" edge="1">
          <mxGeometry relative="1" as="geometry">
            <mxPoint x="100" y="330" as="sourcePoint" />
            <mxPoint x="250" y="240" as="targetPoint" />
          </mxGeometry>
        </mxCell>
        <mxCell id="lW1dMeE9RGw7dCfHeF60-33" style="rounded=0;orthogonalLoop=1;jettySize=auto;html=1;entryX=0;entryY=0.5;entryDx=0;entryDy=0;" parent="1" target="lW1dMeE9RGw7dCfHeF60-16" edge="1">
          <mxGeometry relative="1" as="geometry">
            <mxPoint x="110" y="340" as="sourcePoint" />
            <mxPoint x="245" y="320" as="targetPoint" />
          </mxGeometry>
        </mxCell>
        <mxCell id="lW1dMeE9RGw7dCfHeF60-34" style="rounded=0;orthogonalLoop=1;jettySize=auto;html=1;entryX=0;entryY=0.5;entryDx=0;entryDy=0;" parent="1" target="lW1dMeE9RGw7dCfHeF60-17" edge="1">
          <mxGeometry relative="1" as="geometry">
            <mxPoint x="120" y="350" as="sourcePoint" />
            <mxPoint x="370" y="360" as="targetPoint" />
          </mxGeometry>
        </mxCell>
        <mxCell id="lW1dMeE9RGw7dCfHeF60-35" style="rounded=0;orthogonalLoop=1;jettySize=auto;html=1;entryX=0;entryY=0.5;entryDx=0;entryDy=0;" parent="1" target="lW1dMeE9RGw7dCfHeF60-18" edge="1">
          <mxGeometry relative="1" as="geometry">
            <mxPoint x="110" y="360" as="sourcePoint" />
            <mxPoint x="250" y="400" as="targetPoint" />
            <Array as="points">
              <mxPoint x="230" y="420" />
            </Array>
          </mxGeometry>
        </mxCell>
        <mxCell id="lW1dMeE9RGw7dCfHeF60-40" style="rounded=0;orthogonalLoop=1;jettySize=auto;html=1;entryX=1;entryY=0.5;entryDx=0;entryDy=0;" parent="1" target="lW1dMeE9RGw7dCfHeF60-12" edge="1">
          <mxGeometry relative="1" as="geometry">
            <mxPoint x="740" y="370" as="sourcePoint" />
            <mxPoint x="250" y="240" as="targetPoint" />
          </mxGeometry>
        </mxCell>
        <mxCell id="lW1dMeE9RGw7dCfHeF60-41" style="rounded=0;orthogonalLoop=1;jettySize=auto;html=1;entryX=1;entryY=0.5;entryDx=0;entryDy=0;" parent="1" target="lW1dMeE9RGw7dCfHeF60-14" edge="1">
          <mxGeometry relative="1" as="geometry">
            <mxPoint x="740" y="380" as="sourcePoint" />
            <mxPoint x="484" y="190" as="targetPoint" />
          </mxGeometry>
        </mxCell>
        <mxCell id="lW1dMeE9RGw7dCfHeF60-42" style="rounded=0;orthogonalLoop=1;jettySize=auto;html=1;entryX=1;entryY=0.5;entryDx=0;entryDy=0;" parent="1" target="lW1dMeE9RGw7dCfHeF60-16" edge="1">
          <mxGeometry relative="1" as="geometry">
            <mxPoint x="750" y="390" as="sourcePoint" />
            <mxPoint x="484" y="290" as="targetPoint" />
          </mxGeometry>
        </mxCell>
        <mxCell id="lW1dMeE9RGw7dCfHeF60-44" style="rounded=0;orthogonalLoop=1;jettySize=auto;html=1;entryX=1;entryY=0.5;entryDx=0;entryDy=0;" parent="1" target="lW1dMeE9RGw7dCfHeF60-18" edge="1">
          <mxGeometry relative="1" as="geometry">
            <mxPoint x="740" y="580" as="sourcePoint" />
            <mxPoint x="490" y="360" as="targetPoint" />
          </mxGeometry>
        </mxCell>
        <mxCell id="lW1dMeE9RGw7dCfHeF60-45" value="Gestionar Proveedores" style="ellipse;whiteSpace=wrap;html=1;fillColor=#99CCFF;strokeColor=#66B2FF;" parent="1" vertex="1">
          <mxGeometry x="240" y="460" width="120" height="40" as="geometry" />
        </mxCell>
        <mxCell id="lW1dMeE9RGw7dCfHeF60-46" style="rounded=0;orthogonalLoop=1;jettySize=auto;html=1;entryX=0;entryY=0.5;entryDx=0;entryDy=0;" parent="1" target="lW1dMeE9RGw7dCfHeF60-45" edge="1">
          <mxGeometry relative="1" as="geometry">
            <mxPoint x="100" y="360" as="sourcePoint" />
            <mxPoint x="365" y="440" as="targetPoint" />
            <Array as="points">
              <mxPoint x="190" y="450" />
            </Array>
          </mxGeometry>
        </mxCell>
        <mxCell id="lW1dMeE9RGw7dCfHeF60-47" value="Gestionar Ciudades" style="ellipse;whiteSpace=wrap;html=1;fillColor=#99CCFF;strokeColor=#66B2FF;" parent="1" vertex="1">
          <mxGeometry x="354" y="515" width="120" height="40" as="geometry" />
        </mxCell>
        <mxCell id="lW1dMeE9RGw7dCfHeF60-48" style="rounded=0;orthogonalLoop=1;jettySize=auto;html=1;entryX=0;entryY=0.5;entryDx=0;entryDy=0;" parent="1" target="lW1dMeE9RGw7dCfHeF60-47" edge="1">
          <mxGeometry relative="1" as="geometry">
            <mxPoint x="90" y="360" as="sourcePoint" />
            <mxPoint x="250" y="490" as="targetPoint" />
            <Array as="points">
              <mxPoint x="190" y="500" />
            </Array>
          </mxGeometry>
        </mxCell>
        <mxCell id="lW1dMeE9RGw7dCfHeF60-49" value="Gestionar Departamentos" style="ellipse;whiteSpace=wrap;html=1;fillColor=#99CCFF;strokeColor=#66B2FF;" parent="1" vertex="1">
          <mxGeometry x="240" y="555" width="120" height="40" as="geometry" />
        </mxCell>
        <mxCell id="lW1dMeE9RGw7dCfHeF60-50" style="rounded=0;orthogonalLoop=1;jettySize=auto;html=1;entryX=0;entryY=0.5;entryDx=0;entryDy=0;" parent="1" target="lW1dMeE9RGw7dCfHeF60-49" edge="1">
          <mxGeometry relative="1" as="geometry">
            <mxPoint x="80" y="360" as="sourcePoint" />
            <mxPoint x="364" y="545" as="targetPoint" />
            <Array as="points">
              <mxPoint x="160" y="530" />
            </Array>
          </mxGeometry>
        </mxCell>
        <mxCell id="lW1dMeE9RGw7dCfHeF60-51" value="Gestionar Empresas de Transporte" style="ellipse;whiteSpace=wrap;html=1;fillColor=#99CCFF;strokeColor=#66B2FF;" parent="1" vertex="1">
          <mxGeometry x="354" y="610" width="120" height="40" as="geometry" />
        </mxCell>
        <mxCell id="lW1dMeE9RGw7dCfHeF60-52" style="rounded=0;orthogonalLoop=1;jettySize=auto;html=1;entryX=0;entryY=0.5;entryDx=0;entryDy=0;" parent="1" target="lW1dMeE9RGw7dCfHeF60-51" edge="1">
          <mxGeometry relative="1" as="geometry">
            <mxPoint x="70" y="360" as="sourcePoint" />
            <mxPoint x="250" y="585" as="targetPoint" />
            <Array as="points">
              <mxPoint x="160" y="600" />
            </Array>
          </mxGeometry>
        </mxCell>
        <mxCell id="lW1dMeE9RGw7dCfHeF60-53" value="Gestionar Parámetros" style="ellipse;whiteSpace=wrap;html=1;fillColor=#99CCFF;strokeColor=#66B2FF;" parent="1" vertex="1">
          <mxGeometry x="240" y="650" width="120" height="40" as="geometry" />
        </mxCell>
        <mxCell id="lW1dMeE9RGw7dCfHeF60-54" style="rounded=0;orthogonalLoop=1;jettySize=auto;html=1;entryX=0;entryY=0.5;entryDx=0;entryDy=0;" parent="1" target="lW1dMeE9RGw7dCfHeF60-53" edge="1">
          <mxGeometry relative="1" as="geometry">
            <mxPoint x="60" y="360" as="sourcePoint" />
            <mxPoint x="364" y="640" as="targetPoint" />
            <Array as="points">
              <mxPoint x="140" y="630" />
            </Array>
          </mxGeometry>
        </mxCell>
        <mxCell id="lW1dMeE9RGw7dCfHeF60-55" value="LA CASA DE LA AMAROK" style="text;html=1;strokeColor=none;fillColor=none;align=center;verticalAlign=middle;whiteSpace=wrap;rounded=0;fontSize=19;fontColor=#994C00;" parent="1" vertex="1">
          <mxGeometry x="260" y="50" width="320" height="30" as="geometry" />
        </mxCell>
      </root>
    </mxGraphModel>
  </diagram>
</mxfile>
